<?xml version="1.0" encoding="UTF-8" standalone="no"?>
<!-- Created with Inkscape (http://www.inkscape.org/) -->

<svg
   xmlns:dc="http://purl.org/dc/elements/1.1/"
   xmlns:cc="http://creativecommons.org/ns#"
   xmlns:rdf="http://www.w3.org/1999/02/22-rdf-syntax-ns#"
   xmlns:svg="http://www.w3.org/2000/svg"
   xmlns="http://www.w3.org/2000/svg"
   xmlns:sodipodi="http://sodipodi.sourceforge.net/DTD/sodipodi-0.dtd"
   xmlns:inkscape="http://www.inkscape.org/namespaces/inkscape"
   width="41.247158mm"
   height="18.649969mm"
   viewBox="0 0 41.247158 18.649969"
   version="1.1"
   id="svg1258"
   inkscape:version="0.92.5 (2060ec1f9f, 2020-04-08)"
   sodipodi:docname="logo.svg">
  <defs
     id="defs1252" />
  <sodipodi:namedview
     id="base"
     pagecolor="#ffffff"
     bordercolor="#666666"
     borderopacity="1.0"
     inkscape:pageopacity="0.0"
     inkscape:pageshadow="2"
     inkscape:zoom="3.959798"
     inkscape:cx="12.701696"
     inkscape:cy="11.246615"
     inkscape:document-units="mm"
     inkscape:current-layer="layer1"
     showgrid="false"
     inkscape:window-width="1918"
     inkscape:window-height="2110"
     inkscape:window-x="1920"
     inkscape:window-y="25"
     inkscape:window-maximized="0"
     inkscape:snap-global="false"
     fit-margin-top="0"
     fit-margin-left="0"
     fit-margin-right="0"
     fit-margin-bottom="0" />
  <metadata
     id="metadata1255">
    <rdf:RDF>
      <cc:Work
         rdf:about="">
        <dc:format>image/svg+xml</dc:format>
        <dc:type
           rdf:resource="http://purl.org/dc/dcmitype/StillImage" />
        <dc:title />
      </cc:Work>
    </rdf:RDF>
  </metadata>
  <g
     inkscape:label="Layer 1"
     inkscape:groupmode="layer"
     id="layer1"
     transform="translate(-72.246454,-76.534673)">
    <path
       inkscape:connector-curvature="0"
       id="path4371"
       style="font-style:normal;font-variant:normal;font-weight:normal;font-stretch:normal;font-size:25px;line-height:125%;font-family:'Ropa Sans';-inkscape-font-specification:'Ropa Sans';letter-spacing:0px;word-spacing:0px;fill:#a23c0b;fill-opacity:1;stroke:none;stroke-width:0.40454844px;stroke-linecap:butt;stroke-linejoin:miter;stroke-opacity:1"
       d="m 73.106119,77.717978 v 2.093538 h 1.982288 v 0.768642 h -1.982288 v 2.983544 h -0.859665 v -6.62448 h 3.48923 v 0.778756 z" />
    <path
       inkscape:connector-curvature="0"
       id="path4373"
       style="font-style:normal;font-variant:normal;font-weight:normal;font-stretch:normal;font-size:25px;line-height:125%;font-family:'Ropa Sans';-inkscape-font-specification:'Ropa Sans';letter-spacing:0px;word-spacing:0px;fill:#a23c0b;fill-opacity:1;stroke:none;stroke-width:0.40454844px;stroke-linecap:butt;stroke-linejoin:miter;stroke-opacity:1"
       d="m 77.559316,81.601643 q 0,0.647277 0.333752,0.991143 0.343866,0.333753 1.011371,0.333753 0.667505,0 1.001258,-0.333753 0.343866,-0.343866 0.343866,-0.991143 v -2.700361 q 0,-0.637164 -0.333753,-0.98103 -0.333752,-0.343866 -1.011371,-0.343866 -0.677618,0 -1.011371,0.343866 -0.333752,0.333752 -0.333752,0.970916 z M 76.69965,78.992305 q 0,-0.495572 0.121365,-0.90012 0.131478,-0.404549 0.394435,-0.687732 0.262956,-0.283184 0.677618,-0.43489 0.424776,-0.151706 1.011371,-0.151706 0.586595,0 1.001258,0.151706 0.424775,0.151706 0.687732,0.43489 0.262956,0.283183 0.384321,0.687732 0.131478,0.404548 0.131478,0.90012 v 2.518314 q 0,0.505686 -0.131478,0.910234 -0.121365,0.394435 -0.384321,0.677619 -0.262957,0.283184 -0.687732,0.434889 -0.414663,0.151706 -1.001258,0.151706 -0.586595,0 -1.011371,-0.151706 Q 77.478406,83.381656 77.21545,83.098472 76.952493,82.815288 76.821015,82.420853 76.69965,82.016305 76.69965,81.510619 Z" />
    <path
       inkscape:connector-curvature="0"
       id="path4375"
       style="font-style:normal;font-variant:normal;font-weight:normal;font-stretch:normal;font-size:25px;line-height:125%;font-family:'Ropa Sans';-inkscape-font-specification:'Ropa Sans';letter-spacing:0px;word-spacing:0px;fill:#a23c0b;fill-opacity:1;stroke:none;stroke-width:0.40454844px;stroke-linecap:butt;stroke-linejoin:miter;stroke-opacity:1"
       d="m 84.735467,79.963221 q 0.333752,0.111251 0.566368,0.262957 0.242729,0.141592 0.384321,0.35398 0.151705,0.202274 0.212388,0.475344 0.0708,0.27307 0.0708,0.647278 v 0.19216 q 0,0.43489 -0.121364,0.768642 -0.111251,0.333753 -0.384321,0.566368 -0.262957,0.222502 -0.687732,0.333752 -0.424776,0.121365 -1.031599,0.121365 -0.242729,0 -0.637164,-0.05057 -0.394434,-0.05057 -0.839438,-0.151705 l 0.02023,-0.778756 q 0.414662,0.101137 0.788869,0.151706 0.384321,0.05057 0.647278,0.05057 0.778755,0 1.082167,-0.232615 0.303411,-0.242729 0.303411,-0.70796 v -0.333752 q 0,-0.35398 -0.151706,-0.536027 -0.151705,-0.19216 -0.556254,-0.323639 L 83.360009,80.428453 Q 83.006029,80.317202 82.7633,80.17561 82.530685,80.034018 82.389093,79.831744 82.247501,79.62947 82.176705,79.3564 82.116025,79.08333 82.116025,78.709122 V 78.59787 q 0,-0.859665 0.455117,-1.314782 0.46523,-0.465231 1.517056,-0.465231 0.262957,0 0.647278,0.05057 0.394435,0.04045 0.768642,0.111251 l -0.02023,0.758528 q -0.353979,-0.0708 -0.728187,-0.111251 -0.364093,-0.05057 -0.667505,-0.05057 -0.606822,0 -0.859665,0.242729 -0.252843,0.232615 -0.252843,0.697846 v 0.262956 q 0,0.182047 0.03034,0.313525 0.03034,0.121365 0.121365,0.222502 0.09102,0.101137 0.252843,0.182047 0.161819,0.0708 0.414662,0.151705 z" />
    <path
       inkscape:connector-curvature="0"
       id="path4377"
       style="font-style:normal;font-variant:normal;font-weight:normal;font-stretch:normal;font-size:25px;line-height:125%;font-family:'Ropa Sans';-inkscape-font-specification:'Ropa Sans';letter-spacing:0px;word-spacing:0px;fill:#a23c0b;fill-opacity:1;stroke:none;stroke-width:0.40454844px;stroke-linecap:butt;stroke-linejoin:miter;stroke-opacity:1"
       d="m 89.239228,79.963221 q 0.333752,0.111251 0.566367,0.262957 0.242729,0.141592 0.384321,0.35398 0.151706,0.202274 0.212388,0.475344 0.0708,0.27307 0.0708,0.647278 v 0.19216 q 0,0.43489 -0.121364,0.768642 -0.111251,0.333753 -0.384321,0.566368 -0.262957,0.222502 -0.687733,0.333752 -0.424775,0.121365 -1.031598,0.121365 -0.242729,0 -0.637164,-0.05057 -0.394435,-0.05057 -0.839438,-0.151705 l 0.02023,-0.778756 q 0.414662,0.101137 0.788869,0.151706 0.384321,0.05057 0.647278,0.05057 0.778755,0 1.082167,-0.232615 0.303411,-0.242729 0.303411,-0.70796 v -0.333752 q 0,-0.35398 -0.151706,-0.536027 -0.151705,-0.19216 -0.556254,-0.323639 L 87.863769,80.428453 Q 87.509789,80.317202 87.26706,80.17561 87.034445,80.034018 86.892853,79.831744 86.751261,79.62947 86.680465,79.3564 86.619785,79.08333 86.619785,78.709122 V 78.59787 q 0,-0.859665 0.455116,-1.314782 0.465231,-0.465231 1.517057,-0.465231 0.262957,0 0.647278,0.05057 0.394434,0.04045 0.768642,0.111251 l -0.02023,0.758528 q -0.35398,-0.0708 -0.728187,-0.111251 -0.364094,-0.05057 -0.667505,-0.05057 -0.606823,0 -0.859665,0.242729 -0.252843,0.232615 -0.252843,0.697846 v 0.262956 q 0,0.182047 0.03034,0.313525 0.03034,0.121365 0.121365,0.222502 0.09102,0.101137 0.252842,0.182047 0.16182,0.0708 0.414662,0.151705 z" />
    <path
       inkscape:connector-curvature="0"
       id="path4379"
       style="font-style:normal;font-variant:normal;font-weight:normal;font-stretch:normal;font-size:25px;line-height:125%;font-family:'Ropa Sans';-inkscape-font-specification:'Ropa Sans';letter-spacing:0px;word-spacing:0px;fill:#a23c0b;fill-opacity:1;stroke:none;stroke-width:0.40454844px;stroke-linecap:butt;stroke-linejoin:miter;stroke-opacity:1"
       d="m 91.576284,83.563702 v -4.93549 h 0.859665 v 4.93549 z m 0.991143,-6.2705 q 0,0.455117 -0.566368,0.455117 -0.556254,0 -0.556254,-0.455117 v -0.293298 q 0,-0.465231 0.556254,-0.465231 0.566368,0 0.566368,0.465231 z" />
    <text
       xml:space="preserve"
       style="font-style:normal;font-variant:normal;font-weight:normal;font-stretch:normal;font-size:14.11111069px;line-height:1.25;font-family:sans-serif;-inkscape-font-specification:sans-serif;letter-spacing:0px;word-spacing:0px;fill:#000000;fill-opacity:1;stroke:none;stroke-width:0.26458332"
       x="-88.068451"
       y="59.630951"
       id="text2361"><tspan
         sodipodi:role="line"
         id="tspan2359"
         x="-88.068451"
         y="72.115974"
         style="stroke-width:0.26458332" /></text>
    <g
       aria-label="Dial-Up"
       style="font-style:normal;font-variant:normal;font-weight:normal;font-stretch:normal;font-size:10.40362835px;line-height:1.25;font-family:sans-serif;-inkscape-font-specification:sans-serif;letter-spacing:0px;word-spacing:0px;fill:#000000;fill-opacity:1;stroke:none;stroke-width:0.19506802"
       id="text991">
      <path
         d="M 83.583181,93.233963 H 82.932954 82.282727 81.6325 80.982274 80.332047 79.68182 79.031593 v -0.650227 -0.650227 -0.650226 -0.650227 -0.650227 -0.650227 -0.650226 -0.650227 -0.650227 -0.650227 -0.650226 -0.650227 h 0.650227 0.650227 0.650227 0.650226 0.650227 0.650227 0.650227 0.650226 v 0.650227 0.650226 h 0.650227 0.650227 v 0.650227 0.650227 0.650227 0.650226 0.650227 0.650227 0.650227 0.650226 H 84.883634 84.233407 V 91.283283 90.633056 89.982829 89.332602 88.682376 88.032149 87.381922 86.731695 H 83.583181 82.932954 82.282727 81.6325 80.982274 80.332047 v 0.650227 0.650227 0.650227 0.650226 0.650227 0.650227 0.650227 0.650226 h 0.650227 0.650226 0.650227 0.650227 0.650227 0.650226 v 0.650227 0.650227 z"
         style="font-style:normal;font-variant:normal;font-weight:normal;font-stretch:normal;font-family:Minecraft;-inkscape-font-specification:Minecraft;fill:#000000;fill-opacity:1;stroke-width:0.19506802"
         id="path825" />
      <path
         d="m 86.834315,93.233963 h -0.650227 v -0.650227 -0.650227 -0.650226 -0.650227 -0.650227 -0.650227 -0.650226 -0.650227 -0.650227 h 0.650227 0.650226 v 0.650227 0.650227 0.650226 0.650227 0.650227 0.650227 0.650226 0.650227 0.650227 z m 0,-6.502268 h -0.650227 v -0.650226 -0.650227 h 0.650227 0.650226 v 0.650227 0.650226 z"
         style="font-style:normal;font-variant:normal;font-weight:normal;font-stretch:normal;font-family:Minecraft;-inkscape-font-specification:Minecraft;fill:#000000;fill-opacity:1;stroke-width:0.19506802"
         id="path827" />
      <path
         d="m 93.336582,93.233963 h -0.650227 -0.650227 -0.650227 -0.650226 -0.650227 -0.650227 v -0.650227 -0.650227 h -0.650227 -0.650226 v -0.650226 -0.650227 h 0.650226 0.650227 v -0.650227 -0.650227 h 0.650227 0.650227 0.650226 0.650227 0.650227 v -0.650226 h 0.650227 0.650226 v 0.650226 0.650227 0.650227 0.650227 0.650226 0.650227 0.650227 z m -1.300454,-1.300454 h 0.650227 v -0.650226 -0.650227 h -0.650227 -0.650227 -0.650226 -0.650227 -0.650227 v 0.650227 0.650226 h 0.650227 0.650227 0.650226 z m 0.650227,-3.251133 h -0.650227 -0.650227 -0.650226 -0.650227 -0.650227 -0.650227 -0.650226 v -0.650227 -0.650227 h 0.650226 0.650227 0.650227 0.650227 0.650226 0.650227 0.650227 v 0.650227 z"
         style="font-style:normal;font-variant:normal;font-weight:normal;font-stretch:normal;font-family:Minecraft;-inkscape-font-specification:Minecraft;fill:#000000;fill-opacity:1;stroke-width:0.19506802"
         id="path829" />
      <path
         d="m 95.287262,93.233963 h -0.650227 v -0.650227 -0.650227 -0.650226 -0.650227 -0.650227 -0.650227 -0.650226 -0.650227 -0.650227 -0.650227 -0.650226 -0.650227 h 0.650227 0.650227 v 0.650227 0.650226 0.650227 0.650227 0.650227 0.650226 0.650227 0.650227 0.650227 0.650226 0.650227 0.650227 z"
         style="font-style:normal;font-variant:normal;font-weight:normal;font-stretch:normal;font-family:Minecraft;-inkscape-font-specification:Minecraft;fill:#000000;fill-opacity:1;stroke-width:0.19506802"
         id="path831" />
      <path
         d="m 99.188622,91.283283 h -0.650227 -0.650226 -0.650227 -0.650227 v -0.650227 -0.650227 h 0.650227 0.650227 0.650226 0.650227 0.650227 v 0.650227 0.650227 z"
         style="font-style:normal;font-variant:normal;font-weight:normal;font-stretch:normal;font-family:Minecraft;-inkscape-font-specification:Minecraft;fill:#000000;fill-opacity:1;stroke-width:0.19506802"
         id="path833" />
      <path
         d="m 105.04066,93.233963 h -0.65022 -0.65023 -0.65023 -0.65022 v -0.650227 -0.650227 h 0.65022 0.65023 0.65023 0.65022 0.65023 v 0.650227 0.650227 z m 0.65023,-1.300454 v -0.650226 -0.650227 -0.650227 -0.650227 -0.650226 -0.650227 -0.650227 -0.650227 -0.650226 -0.650227 h 0.65023 0.65022 v 0.650227 0.650226 0.650227 0.650227 0.650227 0.650226 0.650227 0.650227 0.650227 0.650226 h -0.65022 z m -3.25113,0 h -0.65023 -0.65023 v -0.650226 -0.650227 -0.650227 -0.650227 -0.650226 -0.650227 -0.650227 -0.650227 -0.650226 -0.650227 h 0.65023 0.65023 v 0.650227 0.650226 0.650227 0.650227 0.650227 0.650226 0.650227 0.650227 0.650227 z"
         style="font-style:normal;font-variant:normal;font-weight:normal;font-stretch:normal;font-family:Minecraft;-inkscape-font-specification:Minecraft;fill:#000000;fill-opacity:1;stroke-width:0.19506802"
         id="path835" />
      <path
         d="m 108.2918,95.184643 h -0.65023 V 94.534417 93.88419 93.233963 92.583736 91.933509 91.283283 90.633056 89.982829 89.332602 88.682376 88.032149 87.381922 h 0.65023 0.65022 v 0.650227 0.650227 h 0.65023 0.65023 v 0.650226 0.650227 h -0.65023 -0.65023 v 0.650227 0.650227 h 0.65023 0.65023 0.65022 0.65023 0.65023 v 0.650226 0.650227 h -0.65023 -0.65023 -0.65022 -0.65023 -0.65023 v 0.650227 0.650227 0.650227 0.650226 z m 3.90136,-3.90136 v -0.650227 -0.650227 -0.650227 -0.650226 h 0.65023 0.65022 v 0.650226 0.650227 0.650227 0.650227 h -0.65022 z m 0,-2.600907 h -0.65023 -0.65023 -0.65022 v -0.650227 -0.650227 h 0.65022 0.65023 0.65023 v 0.650227 z"
         style="font-style:normal;font-variant:normal;font-weight:normal;font-stretch:normal;font-family:Minecraft;-inkscape-font-specification:Minecraft;fill:#000000;fill-opacity:1;stroke-width:0.19506802"
         id="path837" />
    </g>
  </g>
</svg>
