<?xml version="1.0" encoding="utf-8"?>
<!-- Generator: Adobe Illustrator 23.0.6, SVG Export Plug-In . SVG Version: 6.00 Build 0)  -->
<svg version="1.1" id="Layer_1" xmlns="http://www.w3.org/2000/svg" xmlns:xlink="http://www.w3.org/1999/xlink" x="0px" y="0px"
	 viewBox="0 0 1185.5 513.2" style="enable-background:new 0 0 1185.5 513.2;" xml:space="preserve">
<style type="text/css">
	.st0{fill:#343137;}
	.st1{fill:url(#SVGID_1_);}
	.st2{fill:url(#SVGID_2_);}
	.st3{fill:url(#SVGID_3_);}
	.st4{fill:url(#SVGID_4_);}
	.st5{fill:url(#SVGID_5_);}
	.st6{fill:url(#SVGID_6_);}
	.st7{fill:url(#SVGID_7_);}
	.st8{fill:url(#SVGID_8_);}
	.st9{fill:url(#SVGID_9_);}
	.st10{fill:url(#SVGID_10_);}
	.st11{fill:url(#SVGID_11_);}
	.st12{fill:url(#SVGID_12_);}
</style>
<g>
	<path class="st0" d="M449.4,314.2c-26.2,0-41.4-11.3-41.4-33c0-26.2,25.9-36.6,61.2-39.8v-6.8c0-14.9-8.1-21.7-23.3-21.7
		c-9.4,0-19.7,2.9-27.5,6.8l-4.2-11c9.1-4.5,21.4-7.8,33.3-7.8c23.6,0,38.2,11,38.2,35.6v70.2C477.3,311.3,464,314.2,449.4,314.2z
		 M469.2,250.8c-27.8,3.2-44,11-44,30.1c0,14.9,9.1,23,26.2,23c6.8,0,13.9-1.3,18.1-3.6v-49.5H469.2z"/>
	<path class="st0" d="M571.4,312.3v-75.4c0-16.5-6.8-24.6-24.6-24.6c-7.4,0-13.6,1.3-19.4,3.6v96.1h-17.8V208.4
		c10-4.5,23.6-7.8,37.2-7.8c29.4,0,42.4,12.6,42.4,35.9v75.4h-17.8V312.3z"/>
	<path class="st0" d="M640,313.2c-15.5,0-26.2-9.4-26.2-27.5v-71.5h-12.6v-11h12.6V178l17.8-5.5v30.7h19.1v11h-19.1v71.5
		c0,9.4,4.5,15.2,13.6,15.2c1.9,0,3.9-0.3,5.5-0.6v11.3C647.8,312.6,644.2,313.2,640,313.2z"/>
	<path class="st0" d="M789.8,312.3v-76c0-14.2-6.5-23.6-22.3-23.6c-9.1,0-15.9,4.2-21.4,10.4v89.6h-17.8v-79.3c0-12.6-6.8-21-23-21
		c-8.4,0-14.2,1-20.4,3.6v96.1h-17.5V208.4c10.7-4.5,22.6-7.8,37.5-7.8c16.5,0,25.6,4.5,32.7,12.6c7.4-7.8,18.4-12.6,31.4-12.6
		c26.9,0,38.5,14.2,38.5,35.3v76h-17.8V312.3z"/>
	<path class="st0" d="M831.6,312.3v-38.8v-33.6v-36.6h9.7h8.1V231v26.5v55h-8.7h-9.1V312.3z"/>
	<path class="st0" d="M908.2,314.2c-26.2,0-42.4-23.3-42.4-56.6s16.2-56.6,42.4-56.6c10,0,18.8,2.6,24.6,7.1l-4.2,10.7
		c-4.2-3.2-10.7-5.5-17.1-5.5c-17.5,0-27.2,18.8-27.2,44c0,24.6,10,44.3,27.2,44.3c6.5,0,12.6-1.9,17.1-5.2l4.5,11
		C927,311.6,918.3,314.2,908.2,314.2z"/>
	<path class="st0" d="M992.7,215.2c-3.2-1.3-7.1-1.9-11-1.9c-4.9,0-10,1-13.9,2.9v96.1H950V208.7c9.4-4.5,21.7-7.8,37.2-7.8
		c4.2,0,8.4,0.3,9.4,0.6L992.7,215.2z"/>
	<path class="st0" d="M1042.5,314.2c-29.4,0-43-23.9-43-56.6c0-32.7,13.6-56.6,43-56.6c29.4,0,43,23.9,43,56.6
		C1085.5,290.6,1072,314.2,1042.5,314.2z M1042.5,212.3c-19.1,0-25.2,20.4-25.2,44.7c0,24.3,6.1,45.3,25.2,45.3s25.2-20.7,25.2-45.3
		C1067.7,232.3,1061.6,212.3,1042.5,212.3z"/>
	<g>
		<path class="st0" d="M239.1,259.2h18.8h11.3c1,3.9,4.5,6.5,8.4,6.5c4.9,0,8.7-3.9,8.7-8.7c0-4.9-3.9-9.1-8.7-9.1
			c-4.2,0-7.4,2.9-8.4,6.8h-14.9h-15.2v-12.9H253c0,0,1.3,0,1.9-0.3c1.3-1,4.5-4.2,4.5-4.2l8.7-8.7c1.3,0.6,2.6,1,4.2,1
			c4.9,0,8.7-3.9,8.7-8.7c0-4.9-3.9-8.7-8.7-8.7s-8.7,3.9-8.7,8.7c0,1.6,0.6,3.2,1.3,4.9l-10.4,10.4c0,0-1.3,1.3-1.9,1.3
			c-0.3,0-1,0-1,0h-12.6v-5.5v-14.2c5.8-1,10-6.1,10-12.3c0-6.8-5.5-12.6-12.3-12.6c-6.8,0-12.6,5.5-12.6,12.6c0,6.1,4.5,11,10,12.3
			v19.7H222c0,0-0.6,0-1,0c-0.6-0.3-1.9-1.3-1.9-1.3l-10.4-10.4c1-1.3,1.3-2.9,1.3-4.9c0-4.9-3.9-8.7-8.7-8.7
			c-4.9,0-8.7,3.9-8.7,8.7c0,4.9,3.9,8.7,8.7,8.7c1.6,0,2.9-0.3,4.2-1l8.7,8.7c0,0,3.2,3.2,4.5,4.2c0.6,0.6,1.9,0.3,1.9,0.3h13.9
			v9.1v3.9h-14.2h-15.9c-1-3.9-4.5-6.8-8.4-6.8c-4.9,0-8.7,4.2-8.7,9.1c0,4.9,3.9,8.7,8.7,8.7c4.2,0,7.4-2.6,8.4-6.5h15.9h14.2v12.6
			h-13.9c0,0-1.3,0-1.9,0.3c-1.3,1-4.5,4.2-4.5,4.2l-8.7,8.7c-1.3-0.6-2.6-1-4.2-1c-4.9,0-8.7,3.9-8.7,8.7c0,4.9,3.9,8.7,8.7,8.7
			c4.9,0,8.7-3.9,8.7-8.7c0-1.6-0.6-3.2-1.3-4.9l10.4-10.4c0,0,1.3-1.3,1.9-1.3c0.3,0,1,0,1,0h12.6v9.1v10.7c-5.8,1-10,6.1-10,12.3
			c0,6.8,5.5,12.6,12.6,12.6c6.8,0,12.3-5.5,12.3-12.6c0-6.1-4.5-11-10-12.3v-19.7h12.6c0,0,0.6,0,1,0c0.6,0.3,1.9,1.3,1.9,1.3
			l10.4,10.4c-1,1.3-1.3,2.9-1.3,4.9c0,4.9,3.9,8.7,8.7,8.7s8.7-3.9,8.7-8.7s-3.9-8.7-8.7-8.7c-1.6,0-2.9,0.3-4.2,1l-8.7-8.7
			c0,0-3.2-3.2-4.5-4.2c-0.6-0.6-1.9-0.3-1.9-0.3h-13.9v-7.4v-5.2H239.1z M278,252.4c2.3,0,4.2,1.9,4.2,4.2c0,2.3-1.9,4.2-4.2,4.2
			c-2.3,0-4.2-1.9-4.2-4.2C273.4,254.3,275.4,252.4,278,252.4z M272.5,216.2c2.3,0,4.2,1.9,4.2,4.2c0,2.3-1.9,4.2-4.2,4.2
			c-2.3,0-4.2-1.9-4.2-4.2C268.2,218.1,270.2,216.2,272.5,216.2z M201.3,224.9c-2.3,0-4.2-1.9-4.2-4.2c0-2.3,1.9-4.2,4.2-4.2
			c2.3,0,4.2,1.9,4.2,4.2C205.5,222.9,203.5,224.9,201.3,224.9z M195.8,261.1c-2.3,0-4.2-1.9-4.2-4.2s1.9-4.2,4.2-4.2
			c2.3,0,4.2,1.9,4.2,4.2C200.3,259.2,198.4,261.1,195.8,261.1z M201.3,297.4c-2.3,0-4.2-1.9-4.2-4.2c0-2.3,1.9-4.2,4.2-4.2
			c2.3,0,4.2,1.9,4.2,4.2C205.5,295.4,203.5,297.4,201.3,297.4z M272.5,288.6c2.3,0,4.2,1.9,4.2,4.2c0,2.3-1.9,4.2-4.2,4.2
			c-2.3,0-4.2-1.9-4.2-4.2C268.2,290.6,270.2,288.6,272.5,288.6z M236.9,316.1c-4.2,0-7.8-3.6-7.8-7.8s3.6-7.8,7.8-7.8
			c4.2,0,7.8,3.6,7.8,7.8S241.4,316.1,236.9,316.1z M236.9,197.4c4.2,0,7.8,3.6,7.8,7.8c0,4.2-3.6,7.8-7.8,7.8
			c-4.2,0-7.8-3.6-7.8-7.8C229.1,200.9,232.7,197.4,236.9,197.4z"/>
		
			<linearGradient id="SVGID_1_" gradientUnits="userSpaceOnUse" x1="128.149" y1="-495.176" x2="128.149" y2="-353.4844" gradientTransform="matrix(1 0 0 -1 0 -174.8764)">
			<stop  offset="0" style="stop-color:#2D2E32"/>
			<stop  offset="2.350235e-02" style="stop-color:#3E4044"/>
			<stop  offset="7.545573e-02" style="stop-color:#5C6268"/>
			<stop  offset="0.1331" style="stop-color:#778087"/>
			<stop  offset="0.1951" style="stop-color:#8E9AA3"/>
			<stop  offset="0.2629" style="stop-color:#A1B0BA"/>
			<stop  offset="0.3384" style="stop-color:#B0C3CD"/>
			<stop  offset="0.425" style="stop-color:#BCD1DB"/>
			<stop  offset="0.5293" style="stop-color:#C4DBE6"/>
			<stop  offset="0.6697" style="stop-color:#C9E1EC"/>
			<stop  offset="1" style="stop-color:#CAE3EE"/>
		</linearGradient>
		<path class="st1" d="M156.3,144l-46.9,27.2c-5.5,2.9-9.4,8.4-9.4,15.2c0,0.6,0,1,0,1.6v68.3v1.6v11.6c12.6,18.1,31.4,34,51.8,42.7
			c0,0-1.6-1.6-1.9-1.9c-1.3-1.6-2.3-3.6-2.6-5.8c0-0.3,0-1.9,0-2.3v-0.6v-44.7l0,0v-45.3c0-0.3,0-0.6,0-1c0-1.3,0.3-2.3,0.6-3.2
			c-0.6-5.2-1-10.4-1-15.9C146.9,174.7,150.2,158.6,156.3,144z"/>
		
			<linearGradient id="SVGID_2_" gradientUnits="userSpaceOnUse" x1="223.2915" y1="-568.9109" x2="92.0264" y2="-437.6461" gradientTransform="matrix(1 0 0 -1 0 -174.8764)">
			<stop  offset="0" style="stop-color:#2D2E32"/>
			<stop  offset="2.350235e-02" style="stop-color:#3E4044"/>
			<stop  offset="7.545573e-02" style="stop-color:#5C6268"/>
			<stop  offset="0.1331" style="stop-color:#778087"/>
			<stop  offset="0.1951" style="stop-color:#8E9AA3"/>
			<stop  offset="0.2629" style="stop-color:#A1B0BA"/>
			<stop  offset="0.3384" style="stop-color:#B0C3CD"/>
			<stop  offset="0.425" style="stop-color:#BCD1DB"/>
			<stop  offset="0.5293" style="stop-color:#C4DBE6"/>
			<stop  offset="0.6697" style="stop-color:#C9E1EC"/>
			<stop  offset="1" style="stop-color:#CAE3EE"/>
		</linearGradient>
		<path class="st2" d="M100,269.2v56.6c0,0.6,0,1,0,1.6c0,6.5,3.9,12.3,9.4,15.2l61.8,35.6c2.3,0,4.5,0.3,6.5,0.3
			c26.2,0,50.5-8.7,70.2-23.6l-4.9,2.9c-1.6,1.3-3.9,1.9-6.1,1.9c-0.6,0-1.6,0-2.3-0.3c-1.3-0.3-2.6-0.6-3.9-1.6l-77.7-44.7
			C152.4,312.3,116.8,294.1,100,269.2z"/>
		
			<linearGradient id="SVGID_3_" gradientUnits="userSpaceOnUse" x1="171.1815" y1="-531.9387" x2="327.1337" y2="-531.9387" gradientTransform="matrix(1 0 0 -1 0 -174.8764)">
			<stop  offset="0" style="stop-color:#7E2D2F"/>
			<stop  offset="3.716034e-02" style="stop-color:#883031"/>
			<stop  offset="0.1348" style="stop-color:#9E3836"/>
			<stop  offset="0.2479" style="stop-color:#B13E39"/>
			<stop  offset="0.3843" style="stop-color:#BF433C"/>
			<stop  offset="0.5679" style="stop-color:#C8463E"/>
			<stop  offset="1" style="stop-color:#CA473E"/>
		</linearGradient>
		<path class="st3" d="M326.2,305.5c-0.6,2.9-2.6,5.5-5.2,7.1l-73.1,42.1c-22.6,12.9-44,23.6-70.2,23.6c-2.3,0-4.5,0-6.5-0.3
			l56.6,32.7c2.6,1.6,5.8,2.6,9.1,2.6c3.6,0,6.5-1,9.4-2.9l55.3-32c0,0,1-1.3,1.3-2.3c14.6-19.7,23.9-48.9,24.3-75.1
			C327.1,301.2,326.5,304.8,326.2,305.5z"/>
		<path class="st0" d="M373.7,186.1c0-6.1-3.2-11.6-8.4-14.6H365c0,0-0.3,0-0.3-0.3l-60.2-34.6c-3.6-1.9-7.1-3.2-7.1-3.2
			s-3.2-1.3-4.5-1.3c-21.7,0.6-56.9,9.4-59.9,22.6c0.3,0,1.3-0.3,1.3-0.3c0.6,0,1.3-0.3,2.3-0.3c2.3,0,4.2,0.6,6.1,1.9l77.7,44.7
			c0,0,0,0,0.3,0l0,0c1,0.6,1.9,1.3,2.9,2.3c1.6,1.9,2.6,4.5,2.6,7.1c0,0,0,0,0,0.3l0,0c0,0,0,3.9,0,91.6c0,45-25.6,76.4-24.9,76.4
			c3.6-2.3,63.1-36.6,63.1-36.6s0.3,0,0.3-0.3h0.3l0,0c5.2-2.9,8.4-8.4,8.4-14.6C373.7,327.5,373.7,186.4,373.7,186.1z"/>
		
			<linearGradient id="SVGID_4_" gradientUnits="userSpaceOnUse" x1="272.1784" y1="-291.2322" x2="132.9138" y2="-367.1952" gradientTransform="matrix(1 0 0 -1 0 -174.8764)">
			<stop  offset="0" style="stop-color:#2D2E32"/>
			<stop  offset="2.350235e-02" style="stop-color:#3E4044"/>
			<stop  offset="7.545573e-02" style="stop-color:#5C6268"/>
			<stop  offset="0.1331" style="stop-color:#778087"/>
			<stop  offset="0.1951" style="stop-color:#8E9AA3"/>
			<stop  offset="0.2629" style="stop-color:#A1B0BA"/>
			<stop  offset="0.3384" style="stop-color:#B0C3CD"/>
			<stop  offset="0.425" style="stop-color:#BCD1DB"/>
			<stop  offset="0.5293" style="stop-color:#C4DBE6"/>
			<stop  offset="0.6697" style="stop-color:#C9E1EC"/>
			<stop  offset="1" style="stop-color:#CAE3EE"/>
		</linearGradient>
		<path class="st4" d="M153.4,200.6L231,156c1-0.6,37.9-20.1,65.7-19.7c2.9,0,5.5,0,8.1,0.3l-58.6-33.6c-2.6-1.6-5.8-2.9-9.4-2.9
			c-3.2,0-6.5,1-9.1,2.6l-61.5,35.6l-10,5.8c-6.1,14.6-9.7,30.7-9.7,47.6c0,5.5,0.3,10.7,1,15.9
			C148.9,204.5,150.8,202.2,153.4,200.6z"/>
	</g>
</g>
</svg>
