<?xml version="1.0" encoding="UTF-8" standalone="no"?>
<!-- Created with Inkscape (http://www.inkscape.org/) -->

<svg
   xmlns:dc="http://purl.org/dc/elements/1.1/"
   xmlns:cc="http://creativecommons.org/ns#"
   xmlns:rdf="http://www.w3.org/1999/02/22-rdf-syntax-ns#"
   xmlns:svg="http://www.w3.org/2000/svg"
   xmlns="http://www.w3.org/2000/svg"
   xmlns:sodipodi="http://sodipodi.sourceforge.net/DTD/sodipodi-0.dtd"
   xmlns:inkscape="http://www.inkscape.org/namespaces/inkscape"
   width="41.247158mm"
   height="18.649969mm"
   viewBox="0 0 41.247158 18.649969"
   version="1.1"
   id="svg1258"
   inkscape:version="0.92.5 (2060ec1f9f, 2020-04-08)"
   sodipodi:docname="logo.svg">
  <defs
     id="defs1252" />
  <sodipodi:namedview
     id="base"
     pagecolor="#ffffff"
     bordercolor="#666666"
     borderopacity="1.0"
     inkscape:pageopacity="0.0"
     inkscape:pageshadow="2"
     inkscape:zoom="3.959798"
     inkscape:cx="62.451709"
     inkscape:cy="12.256768"
     inkscape:document-units="mm"
     inkscape:current-layer="layer1"
     showgrid="false"
     inkscape:window-width="3840"
     inkscape:window-height="2111"
     inkscape:window-x="0"
     inkscape:window-y="25"
     inkscape:window-maximized="1"
     inkscape:snap-global="false"
     fit-margin-top="0"
     fit-margin-left="0"
     fit-margin-right="0"
     fit-margin-bottom="0" />
  <metadata
     id="metadata1255">
    <rdf:RDF>
      <cc:Work
         rdf:about="">
        <dc:format>image/svg+xml</dc:format>
        <dc:type
           rdf:resource="http://purl.org/dc/dcmitype/StillImage" />
        <dc:title></dc:title>
      </cc:Work>
    </rdf:RDF>
  </metadata>
  <g
     inkscape:label="Layer 1"
     inkscape:groupmode="layer"
     id="layer1"
     transform="translate(-72.246454,-76.534673)">
    <g
       transform="matrix(0.40454843,0,0,0.40454843,-34.034681,50.084647)"
       style="font-style:normal;font-weight:normal;font-size:12.5px;line-height:125%;font-family:sans-serif;letter-spacing:0px;word-spacing:0px;fill:#a23c0b;fill-opacity:1;stroke:none;stroke-width:1px;stroke-linecap:butt;stroke-linejoin:miter;stroke-opacity:1"
       id="text4886-7">
      <path
         d="m 264.84048,68.306607 v 5.175 h 4.9 v 1.9 h -4.9 v 7.375 h -2.125 v -16.375 h 8.625 v 1.925 z"
         style="font-style:normal;font-variant:normal;font-weight:normal;font-stretch:normal;font-size:25px;font-family:'Ropa Sans';-inkscape-font-specification:'Ropa Sans';fill:#a23c0b;fill-opacity:1"
         id="path4371"
         inkscape:connector-curvature="0" />
      <path
         d="m 275.8483,77.906607 q 0,1.6 0.825,2.45 0.85,0.825 2.5,0.825 1.65,0 2.475,-0.825 0.85,-0.85 0.85,-2.45 v -6.675 q 0,-1.575 -0.825,-2.425 -0.825,-0.85 -2.5,-0.85 -1.675,0 -2.5,0.85 -0.825,0.825 -0.825,2.4 z m -2.125,-6.45 q 0,-1.225 0.3,-2.225 0.325,-1 0.975,-1.7 0.65,-0.7 1.675,-1.075 1.05,-0.375 2.5,-0.375 1.45,0 2.475,0.375 1.05,0.375 1.7,1.075 0.65,0.7 0.95,1.7 0.325,1 0.325,2.225 v 6.225 q 0,1.25 -0.325,2.25 -0.3,0.975 -0.95,1.675 -0.65,0.7 -1.7,1.075 -1.025,0.375 -2.475,0.375 -1.45,0 -2.5,-0.375 -1.025,-0.375 -1.675,-1.075 -0.65,-0.7 -0.975,-1.675 -0.3,-1 -0.3,-2.25 z"
         style="font-style:normal;font-variant:normal;font-weight:normal;font-stretch:normal;font-size:25px;font-family:'Ropa Sans';-inkscape-font-specification:'Ropa Sans';fill:#a23c0b;fill-opacity:1"
         id="path4373"
         inkscape:connector-curvature="0" />
      <path
         d="m 293.58697,73.856607 q 0.825,0.275 1.4,0.65 0.6,0.35 0.95,0.875 0.375,0.5 0.525,1.175 0.175,0.675 0.175,1.6 v 0.475 q 0,1.075 -0.3,1.9 -0.275,0.825 -0.95,1.4 -0.65,0.55 -1.7,0.825 -1.05,0.3 -2.55,0.3 -0.6,0 -1.575,-0.125 -0.975,-0.125 -2.075,-0.375 l 0.05,-1.925 q 1.025,0.25 1.95,0.375 0.95,0.125 1.6,0.125 1.925,0 2.675,-0.575 0.75,-0.6 0.75,-1.75 v -0.825 q 0,-0.875 -0.375,-1.325 -0.375,-0.475 -1.375,-0.8 l -2.575,-0.85 q -0.875,-0.275 -1.475,-0.625 -0.575,-0.35 -0.925,-0.85 -0.35,-0.5 -0.525,-1.175 -0.15,-0.675 -0.15,-1.6 v -0.275 q 0,-2.125 1.125,-3.25 1.15,-1.15 3.75,-1.15 0.65,0 1.6,0.125 0.975,0.1 1.9,0.275 l -0.05,1.875 q -0.875,-0.175 -1.8,-0.275 -0.9,-0.125 -1.65,-0.125 -1.5,0 -2.125,0.6 -0.625,0.575 -0.625,1.725 v 0.65 q 0,0.45 0.075,0.775 0.075,0.3 0.3,0.55 0.225,0.25 0.625,0.45 0.4,0.175 1.025,0.375 z"
         style="font-style:normal;font-variant:normal;font-weight:normal;font-stretch:normal;font-size:25px;font-family:'Ropa Sans';-inkscape-font-specification:'Ropa Sans';fill:#a23c0b;fill-opacity:1"
         id="path4375"
         inkscape:connector-curvature="0" />
      <path
         d="m 304.71978,73.856607 q 0.825,0.275 1.4,0.65 0.6,0.35 0.95,0.875 0.375,0.5 0.525,1.175 0.175,0.675 0.175,1.6 v 0.475 q 0,1.075 -0.3,1.9 -0.275,0.825 -0.95,1.4 -0.65,0.55 -1.7,0.825 -1.05,0.3 -2.55,0.3 -0.6,0 -1.575,-0.125 -0.975,-0.125 -2.075,-0.375 l 0.05,-1.925 q 1.025,0.25 1.95,0.375 0.95,0.125 1.6,0.125 1.925,0 2.675,-0.575 0.75,-0.6 0.75,-1.75 v -0.825 q 0,-0.875 -0.375,-1.325 -0.375,-0.475 -1.375,-0.8 l -2.575,-0.85 q -0.875,-0.275 -1.475,-0.625 -0.575,-0.35 -0.925,-0.85 -0.35,-0.5 -0.525,-1.175 -0.15,-0.675 -0.15,-1.6 v -0.275 q 0,-2.125 1.125,-3.25 1.15,-1.15 3.75,-1.15 0.65,0 1.6,0.125 0.975,0.1 1.9,0.275 l -0.05,1.875 q -0.875,-0.175 -1.8,-0.275 -0.9,-0.125 -1.65,-0.125 -1.5,0 -2.125,0.6 -0.625,0.575 -0.625,1.725 v 0.65 q 0,0.45 0.075,0.775 0.075,0.3 0.3,0.55 0.225,0.25 0.625,0.45 0.4,0.175 1.025,0.375 z"
         style="font-style:normal;font-variant:normal;font-weight:normal;font-stretch:normal;font-size:25px;font-family:'Ropa Sans';-inkscape-font-specification:'Ropa Sans';fill:#a23c0b;fill-opacity:1"
         id="path4377"
         inkscape:connector-curvature="0" />
      <path
         d="m 310.49673,82.756607 v -12.2 h 2.125 v 12.2 z m 2.45,-15.5 q 0,1.125 -1.4,1.125 -1.375,0 -1.375,-1.125 v -0.725 q 0,-1.15 1.375,-1.15 1.4,0 1.4,1.15 z"
         style="font-style:normal;font-variant:normal;font-weight:normal;font-stretch:normal;font-size:25px;font-family:'Ropa Sans';-inkscape-font-specification:'Ropa Sans';fill:#a23c0b;fill-opacity:1"
         id="path4379"
         inkscape:connector-curvature="0" />
    </g>
    <text
       xml:space="preserve"
       style="font-style:normal;font-variant:normal;font-weight:normal;font-stretch:normal;font-size:14.11111069px;line-height:1.25;font-family:sans-serif;-inkscape-font-specification:sans-serif;letter-spacing:0px;word-spacing:0px;fill:#000000;fill-opacity:1;stroke:none;stroke-width:0.26458332"
       x="-88.068451"
       y="59.630951"
       id="text2361"><tspan
         sodipodi:role="line"
         id="tspan2359"
         x="-88.068451"
         y="72.115974"
         style="stroke-width:0.26458332" /></text>
    <text
       xml:space="preserve"
       style="font-style:normal;font-variant:normal;font-weight:normal;font-stretch:normal;font-size:10.40362835px;line-height:1.25;font-family:sans-serif;-inkscape-font-specification:sans-serif;letter-spacing:0px;word-spacing:0px;fill:#000000;fill-opacity:1;stroke:none;stroke-width:0.19506802"
       x="79.031593"
       y="93.233963"
       id="text991"><tspan
         sodipodi:role="line"
         x="79.031593"
         y="93.233963"
         style="font-style:normal;font-variant:normal;font-weight:normal;font-stretch:normal;font-family:Minecraft;-inkscape-font-specification:Minecraft;fill:#000000;fill-opacity:1;stroke-width:0.19506802"
         id="tspan993">Dial-Up</tspan></text>
  </g>
</svg>
