<?xml version="1.0" encoding="utf-8"?>
<!-- Generator: Adobe Illustrator 21.0.1, SVG Export Plug-In . SVG Version: 6.00 Build 0)  -->
<svg version="1.1" id="Layer_1" xmlns="http://www.w3.org/2000/svg" xmlns:xlink="http://www.w3.org/1999/xlink" x="0px" y="0px"
	 viewBox="0 0 280 67" style="enable-background:new 0 0 280 67;" xml:space="preserve">
<style type="text/css">
	.st0{fill:#7B818E;}
</style>
<g>
	<path class="st0" d="M27,17.3c-4.1,0-7.3,1.5-9.5,4.6h-0.1V5.7H6.4v46h10.4v-3.9h0.1c2.2,3.2,5.3,4.8,9.2,4.8c4.6,0,8.2-1.7,10.9-5
		c2.7-3.3,4-7.8,4-13.4c0-5.1-1.3-9.2-3.9-12.3C34.5,18.8,31.1,17.3,27,17.3z M28.4,41.6c-1.1,1.8-2.8,2.7-4.9,2.7
		c-2.3,0-4-0.8-5.1-2.4c-1.1-1.6-1.6-4-1.6-7.2c0-3,0.6-5.3,1.9-6.8c1.3-1.5,2.9-2.2,4.8-2.2c2.1,0,3.8,0.8,4.9,2.5
		c1.1,1.7,1.6,3.8,1.6,6.4C30.1,37.4,29.6,39.8,28.4,41.6z M44.3,51.7h10.9v-46H44.3V51.7z M82.2,36.3c0,2.2-0.6,4-1.7,5.3
		c-1.1,1.3-2.6,2-4.3,2c-3.6,0-5.4-1.9-5.4-5.7V18.3H59.9v20.5c0,4.8,1,8.4,3,10.6c2,2.2,5.1,3.3,9.3,3.3c1.9,0,3.8-0.5,5.7-1.5
		c1.9-1,3.4-2.3,4.5-4.1h0.1v4.6h10.6V18.3H82.2V36.3z M113.9,17.3c-5,0-9.3,1.7-12.8,5c-3.5,3.3-5.2,7.5-5.2,12.6
		c0,5.5,1.7,9.8,5,13c3.3,3.2,7.8,4.8,13.3,4.8c4.1,0,7.6-0.9,10.6-2.8c3-1.9,5-4.6,6-8.3h-10.2c-0.5,1.1-1.3,2-2.4,2.7
		c-1.1,0.7-2.4,1-3.9,1c-2.2,0-3.9-0.7-5.3-2c-1.3-1.3-2.1-3.2-2.2-5.6h24.5v-1.4c0-5.9-1.6-10.5-4.8-13.9
		C123.4,19,119.2,17.3,113.9,17.3z M106.8,31.5c0.3-2.1,1.1-3.8,2.4-5c1.2-1.2,2.8-1.8,4.6-1.8c1.9,0,3.4,0.7,4.6,2
		c1.2,1.3,1.8,2.9,2,4.9H106.8z M155.9,31.6c-5.5-0.9-8.8-1.8-10-2.5c-1.2-0.7-1.8-1.4-1.8-2.2c0-0.9,0.5-1.6,1.3-2
		c0.8-0.4,1.9-0.5,3.4-0.5c1.5,0,2.7,0.3,3.6,0.9c0.9,0.6,1.3,1.5,1.3,2.8h10.1c-0.2-3.6-1.6-6.4-4.2-8.1c-2.6-1.8-6.4-2.7-11.2-2.7
		c-4.4,0-8,0.9-10.9,2.6c-2.9,1.8-4.3,4.3-4.3,7.6c0,2.8,0.8,4.9,2.4,6.4c1.6,1.5,4.1,2.6,7.5,3.3l7.7,1.8c1.2,0.4,2.1,0.8,2.5,1.3
		c0.4,0.5,0.6,1,0.6,1.7c0,1.1-0.5,1.9-1.5,2.6c-1,0.6-2.2,1-3.6,1c-1.7,0-3.1-0.4-4.2-1.3c-1.1-0.9-1.6-2.1-1.6-3.6h-10.4
		c0.1,3.7,1.6,6.7,4.3,8.8c2.8,2.1,6.8,3.2,12,3.2c3,0,5.8-0.5,8.3-1.4c2.5-0.9,4.4-2.2,5.7-4c1.4-1.8,2-3.9,2-6.5
		c0-2.2-0.8-4.2-2.4-5.9C161,33.1,158.7,32.1,155.9,31.6z M187.8,17.3c-3.9,0-7,1.6-9.2,4.8h-0.1v-3.9h-10.4v44.6H179V48.1h0.1
		c2.3,3,5.4,4.6,9.5,4.6c4.2,0,7.7-1.6,10.2-4.7c2.6-3.1,3.9-7.2,3.9-12.3c0-5.5-1.3-9.9-4-13.3C196.1,19,192.4,17.3,187.8,17.3z
		 M190.1,41.6c-1.1,1.8-2.8,2.7-4.9,2.7c-2.3,0-4-0.8-5.1-2.4c-1.1-1.6-1.6-4-1.6-7.2c0-3,0.6-5.3,1.9-6.8c1.3-1.5,2.9-2.2,4.8-2.2
		c2.1,0,3.8,0.8,4.9,2.5c1.1,1.7,1.6,3.8,1.6,6.4C191.8,37.4,191.3,39.8,190.1,41.6z M222,17.3c-5,0-9.3,1.7-12.8,5
		c-3.5,3.3-5.2,7.5-5.2,12.6c0,5.5,1.7,9.8,5,13c3.3,3.2,7.8,4.8,13.3,4.8c4.1,0,7.6-0.9,10.6-2.8c3-1.9,5-4.6,6-8.3h-10.2
		c-0.5,1.1-1.3,2-2.4,2.7c-1.1,0.7-2.4,1-3.9,1c-2.2,0-3.9-0.7-5.3-2c-1.3-1.3-2.1-3.2-2.2-5.6h24.5v-1.4c0-5.9-1.6-10.5-4.8-13.9
		C231.5,19,227.3,17.3,222,17.3z M214.9,31.5c0.3-2.1,1.1-3.8,2.4-5c1.2-1.2,2.8-1.8,4.6-1.8c1.9,0,3.4,0.7,4.6,2
		c1.2,1.3,1.8,2.9,2,4.9H214.9z M264,38.5c-0.5,3.8-2.6,5.7-6.2,5.7c-2.1,0-3.8-0.8-4.9-2.5c-1.1-1.7-1.7-3.8-1.7-6.3
		c0-3.4,0.6-5.9,1.8-7.5c1.2-1.5,2.9-2.3,5.3-2.3c1.5,0,2.7,0.5,3.8,1.4c1.1,0.9,1.6,2.1,1.6,3.5h10.6c-0.4-4.1-2.2-7.3-5.2-9.7
		c-3-2.3-6.8-3.5-11.3-3.5c-5.2,0-9.5,1.7-12.7,5c-3.2,3.3-4.8,7.7-4.8,13.2c0,5,1.6,9.1,4.9,12.3c3.3,3.2,7.5,4.8,12.6,4.8
		c4.6,0,8.5-1.3,11.5-3.8c3-2.5,4.8-6,5.3-10.3H264z"/>
</g>
</svg>
