<?xml version="1.0" encoding="UTF-8" standalone="no"?>
<!-- Generator: Adobe Illustrator 23.0.6, SVG Export Plug-In . SVG Version: 6.00 Build 0)  -->

<svg
   xmlns:dc="http://purl.org/dc/elements/1.1/"
   xmlns:cc="http://creativecommons.org/ns#"
   xmlns:rdf="http://www.w3.org/1999/02/22-rdf-syntax-ns#"
   xmlns:svg="http://www.w3.org/2000/svg"
   xmlns="http://www.w3.org/2000/svg"
   xmlns:sodipodi="http://sodipodi.sourceforge.net/DTD/sodipodi-0.dtd"
   xmlns:inkscape="http://www.inkscape.org/namespaces/inkscape"
   version="1.1"
   id="Layer_1"
   x="0px"
   y="0px"
   viewBox="0 0 985.5 313.2"
   xml:space="preserve"
   sodipodi:docname="Antmicro_logo_Orconf.svg"
   width="985.5"
   height="313.20001"
   inkscape:version="0.92.3 (2405546, 2018-03-11)"><metadata
   id="metadata125"><rdf:RDF><cc:Work
       rdf:about=""><dc:format>image/svg+xml</dc:format><dc:type
         rdf:resource="http://purl.org/dc/dcmitype/StillImage" /><dc:title></dc:title></cc:Work></rdf:RDF></metadata><defs
   id="defs123" /><sodipodi:namedview
   pagecolor="#ffffff"
   bordercolor="#666666"
   borderopacity="1"
   objecttolerance="10"
   gridtolerance="10"
   guidetolerance="10"
   inkscape:pageopacity="0"
   inkscape:pageshadow="2"
   inkscape:window-width="1918"
   inkscape:window-height="2110"
   id="namedview121"
   showgrid="false"
   fit-margin-top="0"
   fit-margin-left="0"
   fit-margin-right="0"
   fit-margin-bottom="0"
   inkscape:zoom="0.34753269"
   inkscape:cx="498.50485"
   inkscape:cy="156.69999"
   inkscape:window-x="0"
   inkscape:window-y="25"
   inkscape:window-maximized="0"
   inkscape:current-layer="Layer_1" />
<style
   type="text/css"
   id="style2">
	.st0{fill:#343137;}
	.st1{fill:url(#SVGID_1_);}
	.st2{fill:url(#SVGID_2_);}
	.st3{fill:url(#SVGID_3_);}
	.st4{fill:url(#SVGID_4_);}
	.st5{fill:url(#SVGID_5_);}
	.st6{fill:url(#SVGID_6_);}
	.st7{fill:url(#SVGID_7_);}
	.st8{fill:url(#SVGID_8_);}
	.st9{fill:url(#SVGID_9_);}
	.st10{fill:url(#SVGID_10_);}
	.st11{fill:url(#SVGID_11_);}
	.st12{fill:url(#SVGID_12_);}
</style>
<g
   id="g118"
   transform="translate(-100,-100.1)">
	<path
   class="st0"
   d="m 449.4,314.2 c -26.2,0 -41.4,-11.3 -41.4,-33 0,-26.2 25.9,-36.6 61.2,-39.8 v -6.8 c 0,-14.9 -8.1,-21.7 -23.3,-21.7 -9.4,0 -19.7,2.9 -27.5,6.8 l -4.2,-11 c 9.1,-4.5 21.4,-7.8 33.3,-7.8 23.6,0 38.2,11 38.2,35.6 v 70.2 c -8.4,4.6 -21.7,7.5 -36.3,7.5 z m 19.8,-63.4 c -27.8,3.2 -44,11 -44,30.1 0,14.9 9.1,23 26.2,23 6.8,0 13.9,-1.3 18.1,-3.6 v -49.5 z"
   id="path4"
   inkscape:connector-curvature="0"
   style="fill:#343137" />
	<path
   class="st0"
   d="m 571.4,312.3 v -75.4 c 0,-16.5 -6.8,-24.6 -24.6,-24.6 -7.4,0 -13.6,1.3 -19.4,3.6 V 312 H 509.6 V 208.4 c 10,-4.5 23.6,-7.8 37.2,-7.8 29.4,0 42.4,12.6 42.4,35.9 v 75.4 h -17.8 z"
   id="path6"
   inkscape:connector-curvature="0"
   style="fill:#343137" />
	<path
   class="st0"
   d="m 640,313.2 c -15.5,0 -26.2,-9.4 -26.2,-27.5 v -71.5 h -12.6 v -11 h 12.6 V 178 l 17.8,-5.5 v 30.7 h 19.1 v 11 h -19.1 v 71.5 c 0,9.4 4.5,15.2 13.6,15.2 1.9,0 3.9,-0.3 5.5,-0.6 v 11.3 c -2.9,1 -6.5,1.6 -10.7,1.6 z"
   id="path8"
   inkscape:connector-curvature="0"
   style="fill:#343137" />
	<path
   class="st0"
   d="m 789.8,312.3 v -76 c 0,-14.2 -6.5,-23.6 -22.3,-23.6 -9.1,0 -15.9,4.2 -21.4,10.4 v 89.6 h -17.8 v -79.3 c 0,-12.6 -6.8,-21 -23,-21 -8.4,0 -14.2,1 -20.4,3.6 v 96.1 H 667.4 V 208.4 c 10.7,-4.5 22.6,-7.8 37.5,-7.8 16.5,0 25.6,4.5 32.7,12.6 7.4,-7.8 18.4,-12.6 31.4,-12.6 26.9,0 38.5,14.2 38.5,35.3 v 76 h -17.8 v 0.4 z"
   id="path10"
   inkscape:connector-curvature="0"
   style="fill:#343137" />
	<path
   class="st0"
   d="m 831.6,312.3 v -38.8 -33.6 -36.6 h 9.7 8.1 v 27.7 26.5 55 h -8.7 -9.1 z"
   id="path12"
   inkscape:connector-curvature="0"
   style="fill:#343137" />
	<path
   class="st0"
   d="m 908.2,314.2 c -26.2,0 -42.4,-23.3 -42.4,-56.6 0,-33.3 16.2,-56.6 42.4,-56.6 10,0 18.8,2.6 24.6,7.1 l -4.2,10.7 c -4.2,-3.2 -10.7,-5.5 -17.1,-5.5 -17.5,0 -27.2,18.8 -27.2,44 0,24.6 10,44.3 27.2,44.3 6.5,0 12.6,-1.9 17.1,-5.2 l 4.5,11 c -6.1,4.2 -14.8,6.8 -24.9,6.8 z"
   id="path14"
   inkscape:connector-curvature="0"
   style="fill:#343137" />
	<path
   class="st0"
   d="m 992.7,215.2 c -3.2,-1.3 -7.1,-1.9 -11,-1.9 -4.9,0 -10,1 -13.9,2.9 v 96.1 H 950 V 208.7 c 9.4,-4.5 21.7,-7.8 37.2,-7.8 4.2,0 8.4,0.3 9.4,0.6 z"
   id="path16"
   inkscape:connector-curvature="0"
   style="fill:#343137" />
	<path
   class="st0"
   d="m 1042.5,314.2 c -29.4,0 -43,-23.9 -43,-56.6 0,-32.7 13.6,-56.6 43,-56.6 29.4,0 43,23.9 43,56.6 0,33 -13.5,56.6 -43,56.6 z m 0,-101.9 c -19.1,0 -25.2,20.4 -25.2,44.7 0,24.3 6.1,45.3 25.2,45.3 19.1,0 25.2,-20.7 25.2,-45.3 0,-24.7 -6.1,-44.7 -25.2,-44.7 z"
   id="path18"
   inkscape:connector-curvature="0"
   style="fill:#343137" />
	<g
   id="g116">
		<path
   class="st0"
   d="m 239.1,259.2 h 18.8 11.3 c 1,3.9 4.5,6.5 8.4,6.5 4.9,0 8.7,-3.9 8.7,-8.7 0,-4.9 -3.9,-9.1 -8.7,-9.1 -4.2,0 -7.4,2.9 -8.4,6.8 H 254.3 239.1 V 241.8 H 253 c 0,0 1.3,0 1.9,-0.3 1.3,-1 4.5,-4.2 4.5,-4.2 l 8.7,-8.7 c 1.3,0.6 2.6,1 4.2,1 4.9,0 8.7,-3.9 8.7,-8.7 0,-4.9 -3.9,-8.7 -8.7,-8.7 -4.8,0 -8.7,3.9 -8.7,8.7 0,1.6 0.6,3.2 1.3,4.9 l -10.4,10.4 c 0,0 -1.3,1.3 -1.9,1.3 -0.3,0 -1,0 -1,0 H 239 V 232 217.8 c 5.8,-1 10,-6.1 10,-12.3 0,-6.8 -5.5,-12.6 -12.3,-12.6 -6.8,0 -12.6,5.5 -12.6,12.6 0,6.1 4.5,11 10,12.3 v 19.7 H 222 c 0,0 -0.6,0 -1,0 -0.6,-0.3 -1.9,-1.3 -1.9,-1.3 l -10.4,-10.4 c 1,-1.3 1.3,-2.9 1.3,-4.9 0,-4.9 -3.9,-8.7 -8.7,-8.7 -4.9,0 -8.7,3.9 -8.7,8.7 0,4.9 3.9,8.7 8.7,8.7 1.6,0 2.9,-0.3 4.2,-1 l 8.7,8.7 c 0,0 3.2,3.2 4.5,4.2 0.6,0.6 1.9,0.3 1.9,0.3 h 13.9 v 9.1 3.9 h -14.2 -15.9 c -1,-3.9 -4.5,-6.8 -8.4,-6.8 -4.9,0 -8.7,4.2 -8.7,9.1 0,4.9 3.9,8.7 8.7,8.7 4.2,0 7.4,-2.6 8.4,-6.5 h 15.9 14.2 v 12.6 h -13.9 c 0,0 -1.3,0 -1.9,0.3 -1.3,1 -4.5,4.2 -4.5,4.2 l -8.7,8.7 c -1.3,-0.6 -2.6,-1 -4.2,-1 -4.9,0 -8.7,3.9 -8.7,8.7 0,4.9 3.9,8.7 8.7,8.7 4.9,0 8.7,-3.9 8.7,-8.7 0,-1.6 -0.6,-3.2 -1.3,-4.9 l 10.4,-10.4 c 0,0 1.3,-1.3 1.9,-1.3 0.3,0 1,0 1,0 h 12.6 v 9.1 10.7 c -5.8,1 -10,6.1 -10,12.3 0,6.8 5.5,12.6 12.6,12.6 6.8,0 12.3,-5.5 12.3,-12.6 0,-6.1 -4.5,-11 -10,-12.3 v -19.7 h 12.6 c 0,0 0.6,0 1,0 0.6,0.3 1.9,1.3 1.9,1.3 l 10.4,10.4 c -1,1.3 -1.3,2.9 -1.3,4.9 0,4.9 3.9,8.7 8.7,8.7 4.8,0 8.7,-3.9 8.7,-8.7 0,-4.8 -3.9,-8.7 -8.7,-8.7 -1.6,0 -2.9,0.3 -4.2,1 l -8.7,-8.7 c 0,0 -3.2,-3.2 -4.5,-4.2 -0.6,-0.6 -1.9,-0.3 -1.9,-0.3 h -13.9 v -7.4 -5.2 h -0.5 z m 38.9,-6.8 c 2.3,0 4.2,1.9 4.2,4.2 0,2.3 -1.9,4.2 -4.2,4.2 -2.3,0 -4.2,-1.9 -4.2,-4.2 -0.4,-2.3 1.6,-4.2 4.2,-4.2 z m -5.5,-36.2 c 2.3,0 4.2,1.9 4.2,4.2 0,2.3 -1.9,4.2 -4.2,4.2 -2.3,0 -4.2,-1.9 -4.2,-4.2 -0.1,-2.3 1.9,-4.2 4.2,-4.2 z m -71.2,8.7 c -2.3,0 -4.2,-1.9 -4.2,-4.2 0,-2.3 1.9,-4.2 4.2,-4.2 2.3,0 4.2,1.9 4.2,4.2 0,2.2 -2,4.2 -4.2,4.2 z m -5.5,36.2 c -2.3,0 -4.2,-1.9 -4.2,-4.2 0,-2.3 1.9,-4.2 4.2,-4.2 2.3,0 4.2,1.9 4.2,4.2 0.3,2.3 -1.6,4.2 -4.2,4.2 z m 5.5,36.3 c -2.3,0 -4.2,-1.9 -4.2,-4.2 0,-2.3 1.9,-4.2 4.2,-4.2 2.3,0 4.2,1.9 4.2,4.2 0,2.2 -2,4.2 -4.2,4.2 z m 71.2,-8.8 c 2.3,0 4.2,1.9 4.2,4.2 0,2.3 -1.9,4.2 -4.2,4.2 -2.3,0 -4.2,-1.9 -4.2,-4.2 -0.1,-2.2 1.9,-4.2 4.2,-4.2 z m -35.6,27.5 c -4.2,0 -7.8,-3.6 -7.8,-7.8 0,-4.2 3.6,-7.8 7.8,-7.8 4.2,0 7.8,3.6 7.8,7.8 0,4.2 -3.3,7.8 -7.8,7.8 z m 0,-118.7 c 4.2,0 7.8,3.6 7.8,7.8 0,4.2 -3.6,7.8 -7.8,7.8 -4.2,0 -7.8,-3.6 -7.8,-7.8 0,-4.3 3.6,-7.8 7.8,-7.8 z"
   id="path20"
   inkscape:connector-curvature="0"
   style="fill:#343137" />
		
			<linearGradient
   id="SVGID_1_"
   gradientUnits="userSpaceOnUse"
   x1="128.149"
   y1="-495.17599"
   x2="128.149"
   y2="-353.48441"
   gradientTransform="matrix(1,0,0,-1,0,-174.8764)">
			<stop
   offset="0"
   style="stop-color:#2D2E32"
   id="stop22" />
			<stop
   offset="2.350235e-02"
   style="stop-color:#3E4044"
   id="stop24" />
			<stop
   offset="7.545573e-02"
   style="stop-color:#5C6268"
   id="stop26" />
			<stop
   offset="0.1331"
   style="stop-color:#778087"
   id="stop28" />
			<stop
   offset="0.1951"
   style="stop-color:#8E9AA3"
   id="stop30" />
			<stop
   offset="0.2629"
   style="stop-color:#A1B0BA"
   id="stop32" />
			<stop
   offset="0.3384"
   style="stop-color:#B0C3CD"
   id="stop34" />
			<stop
   offset="0.425"
   style="stop-color:#BCD1DB"
   id="stop36" />
			<stop
   offset="0.5293"
   style="stop-color:#C4DBE6"
   id="stop38" />
			<stop
   offset="0.6697"
   style="stop-color:#C9E1EC"
   id="stop40" />
			<stop
   offset="1"
   style="stop-color:#CAE3EE"
   id="stop42" />
		</linearGradient>
		<path
   class="st1"
   d="m 156.3,144 -46.9,27.2 c -5.5,2.9 -9.4,8.4 -9.4,15.2 0,0.6 0,1 0,1.6 v 68.3 1.6 11.6 c 12.6,18.1 31.4,34 51.8,42.7 0,0 -1.6,-1.6 -1.9,-1.9 -1.3,-1.6 -2.3,-3.6 -2.6,-5.8 0,-0.3 0,-1.9 0,-2.3 v -0.6 -44.7 0 -45.3 c 0,-0.3 0,-0.6 0,-1 0,-1.3 0.3,-2.3 0.6,-3.2 -0.6,-5.2 -1,-10.4 -1,-15.9 0,-16.8 3.3,-32.9 9.4,-47.5 z"
   id="path45"
   inkscape:connector-curvature="0"
   style="fill:url(#SVGID_1_)" />
		
			<linearGradient
   id="SVGID_2_"
   gradientUnits="userSpaceOnUse"
   x1="223.2915"
   y1="-568.91089"
   x2="92.026398"
   y2="-437.64609"
   gradientTransform="matrix(1,0,0,-1,0,-174.8764)">
			<stop
   offset="0"
   style="stop-color:#2D2E32"
   id="stop47" />
			<stop
   offset="2.350235e-02"
   style="stop-color:#3E4044"
   id="stop49" />
			<stop
   offset="7.545573e-02"
   style="stop-color:#5C6268"
   id="stop51" />
			<stop
   offset="0.1331"
   style="stop-color:#778087"
   id="stop53" />
			<stop
   offset="0.1951"
   style="stop-color:#8E9AA3"
   id="stop55" />
			<stop
   offset="0.2629"
   style="stop-color:#A1B0BA"
   id="stop57" />
			<stop
   offset="0.3384"
   style="stop-color:#B0C3CD"
   id="stop59" />
			<stop
   offset="0.425"
   style="stop-color:#BCD1DB"
   id="stop61" />
			<stop
   offset="0.5293"
   style="stop-color:#C4DBE6"
   id="stop63" />
			<stop
   offset="0.6697"
   style="stop-color:#C9E1EC"
   id="stop65" />
			<stop
   offset="1"
   style="stop-color:#CAE3EE"
   id="stop67" />
		</linearGradient>
		<path
   class="st2"
   d="m 100,269.2 v 56.6 c 0,0.6 0,1 0,1.6 0,6.5 3.9,12.3 9.4,15.2 l 61.8,35.6 c 2.3,0 4.5,0.3 6.5,0.3 26.2,0 50.5,-8.7 70.2,-23.6 l -4.9,2.9 c -1.6,1.3 -3.9,1.9 -6.1,1.9 -0.6,0 -1.6,0 -2.3,-0.3 -1.3,-0.3 -2.6,-0.6 -3.9,-1.6 L 153,313.1 c -0.6,-0.8 -36.2,-19 -53,-43.9 z"
   id="path70"
   inkscape:connector-curvature="0"
   style="fill:url(#SVGID_2_)" />
		
			<linearGradient
   id="SVGID_3_"
   gradientUnits="userSpaceOnUse"
   x1="171.1815"
   y1="-531.93872"
   x2="327.1337"
   y2="-531.93872"
   gradientTransform="matrix(1,0,0,-1,0,-174.8764)">
			<stop
   offset="0"
   style="stop-color:#7E2D2F"
   id="stop72" />
			<stop
   offset="3.716034e-02"
   style="stop-color:#883031"
   id="stop74" />
			<stop
   offset="0.1348"
   style="stop-color:#9E3836"
   id="stop76" />
			<stop
   offset="0.2479"
   style="stop-color:#B13E39"
   id="stop78" />
			<stop
   offset="0.3843"
   style="stop-color:#BF433C"
   id="stop80" />
			<stop
   offset="0.5679"
   style="stop-color:#C8463E"
   id="stop82" />
			<stop
   offset="1"
   style="stop-color:#CA473E"
   id="stop84" />
		</linearGradient>
		<path
   class="st3"
   d="m 326.2,305.5 c -0.6,2.9 -2.6,5.5 -5.2,7.1 l -73.1,42.1 c -22.6,12.9 -44,23.6 -70.2,23.6 -2.3,0 -4.5,0 -6.5,-0.3 l 56.6,32.7 c 2.6,1.6 5.8,2.6 9.1,2.6 3.6,0 6.5,-1 9.4,-2.9 l 55.3,-32 c 0,0 1,-1.3 1.3,-2.3 14.6,-19.7 23.9,-48.9 24.3,-75.1 -0.1,0.2 -0.7,3.8 -1,4.5 z"
   id="path87"
   inkscape:connector-curvature="0"
   style="fill:url(#SVGID_3_)" />
		<path
   class="st0"
   d="m 373.7,186.1 c 0,-6.1 -3.2,-11.6 -8.4,-14.6 H 365 c 0,0 -0.3,0 -0.3,-0.3 l -60.2,-34.6 c -3.6,-1.9 -7.1,-3.2 -7.1,-3.2 0,0 -3.2,-1.3 -4.5,-1.3 -21.7,0.6 -56.9,9.4 -59.9,22.6 0.3,0 1.3,-0.3 1.3,-0.3 0.6,0 1.3,-0.3 2.3,-0.3 2.3,0 4.2,0.6 6.1,1.9 l 77.7,44.7 c 0,0 0,0 0.3,0 v 0 c 1,0.6 1.9,1.3 2.9,2.3 1.6,1.9 2.6,4.5 2.6,7.1 0,0 0,0 0,0.3 v 0 c 0,0 0,3.9 0,91.6 0,45 -25.6,76.4 -24.9,76.4 3.6,-2.3 63.1,-36.6 63.1,-36.6 0,0 0.3,0 0.3,-0.3 h 0.3 v 0 c 5.2,-2.9 8.4,-8.4 8.4,-14.6 0.3,0.6 0.3,-140.5 0.3,-140.8 z"
   id="path89"
   inkscape:connector-curvature="0"
   style="fill:#343137" />
		
			<linearGradient
   id="SVGID_4_"
   gradientUnits="userSpaceOnUse"
   x1="272.17841"
   y1="-291.23221"
   x2="132.9138"
   y2="-367.19519"
   gradientTransform="matrix(1,0,0,-1,0,-174.8764)">
			<stop
   offset="0"
   style="stop-color:#2D2E32"
   id="stop91" />
			<stop
   offset="2.350235e-02"
   style="stop-color:#3E4044"
   id="stop93" />
			<stop
   offset="7.545573e-02"
   style="stop-color:#5C6268"
   id="stop95" />
			<stop
   offset="0.1331"
   style="stop-color:#778087"
   id="stop97" />
			<stop
   offset="0.1951"
   style="stop-color:#8E9AA3"
   id="stop99" />
			<stop
   offset="0.2629"
   style="stop-color:#A1B0BA"
   id="stop101" />
			<stop
   offset="0.3384"
   style="stop-color:#B0C3CD"
   id="stop103" />
			<stop
   offset="0.425"
   style="stop-color:#BCD1DB"
   id="stop105" />
			<stop
   offset="0.5293"
   style="stop-color:#C4DBE6"
   id="stop107" />
			<stop
   offset="0.6697"
   style="stop-color:#C9E1EC"
   id="stop109" />
			<stop
   offset="1"
   style="stop-color:#CAE3EE"
   id="stop111" />
		</linearGradient>
		<path
   class="st4"
   d="M 153.4,200.6 231,156 c 1,-0.6 37.9,-20.1 65.7,-19.7 2.9,0 5.5,0 8.1,0.3 L 246.2,103 c -2.6,-1.6 -5.8,-2.9 -9.4,-2.9 -3.2,0 -6.5,1 -9.1,2.6 l -61.5,35.6 -10,5.8 c -6.1,14.6 -9.7,30.7 -9.7,47.6 0,5.5 0.3,10.7 1,15.9 1.4,-3.1 3.3,-5.4 5.9,-7 z"
   id="path114"
   inkscape:connector-curvature="0"
   style="fill:url(#SVGID_4_)" />
	</g>
</g>
</svg>